<?xml version="1.0" encoding="UTF-8"?>
<!DOCTYPE svg PUBLIC "-//W3C//DTD SVG 1.1//EN" "http://www.w3.org/Graphics/SVG/1.1/DTD/svg11.dtd">
<!-- Creator: CorelDRAW -->
<svg xmlns="http://www.w3.org/2000/svg" xml:space="preserve" width="42.3333mm" height="42.3333mm" version="1.1" style="shape-rendering:geometricPrecision; text-rendering:geometricPrecision; image-rendering:optimizeQuality; fill-rule:evenodd; clip-rule:evenodd"
viewBox="0 0 4231.92 4231.92"
 xmlns:xlink="http://www.w3.org/1999/xlink"
 xmlns:xodm="http://www.corel.com/coreldraw/odm/2003">
 <defs>
  <style type="text/css">
   <![CDATA[
    .fil0 {fill:#FEFEFE}
    .fil2 {fill:#00A9A4}
    .fil4 {fill:black;fill-rule:nonzero}
    .fil1 {fill:#00357C;fill-rule:nonzero}
    .fil3 {fill:#00A9A4;fill-rule:nonzero}
   ]]>
  </style>
 </defs>
 <g id="Layer_x0020_1">
  <metadata id="CorelCorpID_0Corel-Layer"/>
  <g id="_2547396542944">
   <rect class="fil0" x="0" y="-0.01" width="4231.92" height="4231.92"/>
   <g>
    <path class="fil1" d="M510.9 2780.27c0,-77.93 21.64,-138.06 64.83,-180.29 40.99,-40.09 91.08,-55.79 147.63,-55.13 56.55,-0.66 106.65,15.04 147.63,55.13 33.24,32.51 53.71,75.61 61.39,129.28l-100.95 0c-4.74,-25.65 -13.32,-46.95 -25.7,-63.86 -20.14,-27.43 -47.52,-41.1 -82.37,-41.1 -34.85,0 -62.23,13.67 -82.36,41.1 -20.02,27.32 -30.09,66.13 -30.09,116.21 0,50.09 10.61,87.66 31.71,112.6 21.19,24.92 47.99,37.47 80.74,37.47 32.75,0 59.54,-12.55 80.74,-37.47 12.66,-14.96 21.53,-34.45 26.61,-58.45l100.88 0c-7.54,46.42 -25.15,84.72 -52.8,114.85 -37.77,40.95 -89.54,61.54 -155.43,61.78 -65.89,-0.24 -117.66,-20.83 -155.43,-61.78 -37.99,-41.4 -57.03,-98.21 -57.03,-170.34zm2176.12 -8.95c-6.83,0 -12.41,-5.29 -12.41,-11.76l0 -41.52c0,-15.45 24.81,-15.45 24.81,0l0 41.52c0,6.47 -5.58,11.76 -12.41,11.76zm0 241.01c56.97,0.2 113.91,-11.74 154.94,-51.66 93.79,-84.13 96.83,-281.66 0,-365.35 -33.77,-32.87 -78.22,-46.77 -125.32,-50.56l0 79.71c25.82,5.18 47.3,17.8 64.49,37.89 66.08,77.36 43.33,271.85 -94.11,271.85 -139.44,0 -159.61,-195.16 -94.11,-271.85 17.18,-20.08 38.67,-32.71 64.49,-37.89l0 -79.71c-47.09,3.79 -91.55,17.69 -125.32,50.56 -96.83,83.69 -93.79,281.22 0,365.35 41.03,39.93 97.97,51.86 154.94,51.66zm0 -108.83c84.16,0.48 100.43,-80.2 95.76,-144.57l-66.42 0c0,34.58 -58.68,34.58 -58.68,0l-66.42 0c-4.66,64.37 11.6,145.05 95.76,144.57zm12.7 -250.49c47.38,4.52 71.69,39.69 79.93,81.86l-63.29 0c0,-15.53 2.83,-31.68 -16.64,-39.84l0 -42.03zm-25.39 0c-47.38,4.52 -71.69,39.69 -79.93,81.86l63.29 0c0,-15.53 -2.83,-31.68 16.64,-39.84l0 -42.03zm275.33 135.34l176.64 0 0 85.72 -176.64 0 0 -85.72zm339.64 224.05l-96.76 0 0 -467.57 96.76 0 0 467.57zm431.76 -467.57l0 82.47 -140.27 0 0 385.1 -98.07 0 0 -385.1 -140.27 0 0 -82.47 378.61 0zm-2611.13 290.93l146.94 0 -73.47 -173.08 -73.48 173.08zm24.09 -290.93l99.4 0 198.48 467.57 -100.06 0 -40.79 -96.12 -215.31 0 -38.18 96.12 -101.74 0 198.18 -467.57zm688.92 -0.01l96.76 0.01 0 467.57 -96.76 0c0,-130.79 0,-108.85 0,-239.62l-101.72 239.62 -55.04 0 -101.71 -239.62c0,130.76 0,108.83 0,239.62l-96.77 0 0 -467.57 96.77 0 129.23 304.45 129.24 -304.46zm285.4 80.53l0 103.91 110.62 0c20.24,0 36.7,-3.9 49.35,-11.69 12.67,-7.8 18.94,-21.54 18.94,-41.35 0,-21.97 -8.33,-36.48 -25.11,-43.52 -14.4,-4.87 -32.8,-7.36 -55.2,-7.36l-98.61 0zm0 181.19l0 125.33 110.19 0c20.23,0 35.93,-2.81 47.19,-8.33 20.45,-10.18 30.63,-29.77 30.63,-58.67 0,-24.45 -9.86,-41.24 -29.66,-50.32 -11.04,-5.2 -26.63,-7.8 -46.54,-8.01l-111.81 0zm129.24 -261.71c57.04,0.86 97.42,17.42 121.12,49.78 14.29,19.91 21.43,43.73 21.43,71.44 0,28.57 -7.26,51.52 -21.65,68.84 -8.12,9.74 -19.91,18.61 -35.72,26.63 23.92,8.77 41.89,22.51 54.12,41.24 12.12,18.83 18.18,41.67 18.18,68.51 0,27.71 -6.93,52.6 -20.78,74.58 -8.88,14.62 -19.91,26.84 -33.12,36.8 -14.94,11.37 -32.47,19.16 -52.71,23.38 -20.34,4.22 -42.32,6.39 -66.02,6.39l-210.52 0 0 -467.57 225.66 0z"/>
    <path class="fil2" d="M2458.99 2140.8l-125.75 -296.24 -1009.75 0 -125.75 296.24 1229.73 0 0 33.85 -1229.73 0 0 25.39 1261.25 0 0 -59.24zm-773.01 -1109.82l0.1 93.6 112.89 -0.64 -0.05 -108.33 -112.94 15.37zm112.88 111.92l-112.8 -0.72 0.01 93.64 112.88 15.51 -0.09 -108.43zm20.21 -130.23l0 111.01 151.65 -1.21 0 -131.95 -151.65 22.14zm151.69 131.33l-151.91 -0.25 0.21 110.16 151.66 21.4 0.04 -131.32zm-777.53 -403.17l1270.27 0c16.35,0 29.7,13.35 29.7,29.69l0 762.91c0,16.34 -13.35,29.69 -29.7,29.69l-582.03 0 0 28.27c129.22,7.13 226.85,39.78 226.85,78.98 0,44.44 -125.34,80.44 -279.96,80.44 -154.62,0 -279.96,-36.01 -279.96,-80.44 0,-39.21 97.64,-71.86 226.85,-78.98l0 -28.27 -582.04 0c-16.34,0 -29.69,-13.34 -29.69,-29.69l0 -762.91c0,-16.35 13.34,-29.69 29.69,-29.69zm23.74 54.44l1222.78 0 0 675.31 -1222.78 0 0 -675.31zm753.75 -127.86l778.15 -303.56c8.44,-3.29 16.65,-3.67 25.37,-1.15l410.88 118.64c12.91,3.72 21.47,15.11 21.45,28.55 -0.38,429.06 -0.77,858.88 -1.15,1287.22 -0.02,13.55 -8.74,24.99 -21.78,28.6l-401.1 110.78c-11.74,3.25 -23.2,1.36 -33.16,-5.66l-309.64 -218.52 0 -16.92 234.54 105.17 0.47 -580.02 0.62 -753.53 -704.67 217.31 0 -16.92zm901.01 809.28l0 -31.85 224.59 -0.6 0 20.29 -224.59 12.16zm0 -64.34l0 -32.42 224.59 -0.59 0 32.41 -224.59 0.6zm0 -65.62l0 -32.41 224.59 2.39 0 32.42 -224.59 -2.4zm0 -56.89l0 -32.43 224.59 6.29 0 32.43 -224.59 -6.29zm0 -66.36l0 -32.44 224.59 9.26 0 32.45 -224.59 -9.27zm0 -67.95l0 -32.46 224.59 12.09 0 32.46 -224.59 -12.09zm0 -67.82l0 -32.52 224.59 17.57 0 32.52 -224.59 -17.57zm0 -64.36l0 -32.52 224.59 17.57 -0.05 32.51 -224.54 -17.56zm113.09 530.32c24.17,0 43.77,19.59 43.77,43.78 0,24.18 -19.59,43.78 -43.77,43.78 -24.18,0 -43.78,-19.59 -43.78,-43.78 0,-24.18 19.59,-43.78 43.78,-43.78zm-140.88 -832.07l280.16 21.77 -0.41 79.67 -279.75 15.21 0 -116.66zm-1313.14 1331.15l-13.51 54.17 622.14 0 -13.51 -54.17 -595.13 0zm718.99 -128.65l16.89 44.02 -144.45 0 -10.97 -44.02c46.17,0 92.35,0 138.52,0zm-106.45 128.65l70.7 0 17.6 54.17 -74.8 0 -13.51 -54.17zm88.46 0l67.38 0 20.79 54.17 -70.58 0 -17.59 -54.17zm85.42 0l72.89 0 22.99 54.17 -75.08 0 -20.79 -54.17zm-460.04 -182.56l1.29 36.99 -60.2 0 1.29 -36.99 57.62 0zm16.87 -0.01l57.54 -0.03 3.24 37.03 -59.49 0 -1.29 -37zm74.54 -0.04l57.47 -0.04 5.87 37.08 -60.1 0 -3.24 -37.04zm74.55 -0.05l57.25 -0.03 9.26 37.12 -60.63 0 -5.88 -37.09zm74.66 -0.04l56.86 -0.03 12.08 37.16 -59.68 0 -9.26 -37.13zm74.63 -0.04l56.6 -0.03 14.28 37.2 -58.8 0 -12.08 -37.17zm74.65 -0.04l65.44 -0.04 15.81 37.25 -66.98 0 -14.28 -37.21zm-388 54.13l1.54 44.02 -64.46 0 1.53 -44.02 61.39 0zm16.88 0l60.37 0 3.86 44.02 -62.7 0 -1.53 -44.02zm77.36 0l61.3 0 6.98 44.02 -64.43 0 -3.85 -44.02zm78.38 0l62.17 0 10.97 44.02 -66.16 0 -6.98 -44.02zm236.14 0l67.66 0 18.68 44.02 -69.45 0 -16.89 -44.02zm-406.64 60.94l1.78 50.78 -69.2 0 1.78 -50.78 65.64 0zm16.87 0l63.59 0 4.44 50.78 -66.25 0 -1.78 -50.78zm80.57 0l65.63 0 8.04 50.78 -69.23 0 -4.44 -50.78zm82.71 0l67.7 0 12.67 50.78 -72.33 0 -8.04 -50.78zm85.11 0l65.57 0 16.49 50.78 -69.41 0 -12.66 -50.78zm83.33 0l63.39 0 19.49 50.78 -66.38 0 -16.5 -50.78zm81.43 0l70.14 0 21.55 50.78 -72.2 0 -19.49 -50.78zm-777.83 67.71l-70.69 0 -17.6 54.17 74.8 0 13.5 -54.17zm-88.45 0l-67.38 0 -20.8 54.17 70.58 0 17.6 -54.17zm-85.42 0l-72.89 0 -22.99 54.17 75.07 0 20.8 -54.17zm443.15 -182.57l-57.54 -0.03 -3.24 37.03 59.49 0 1.29 -37zm-74.53 -0.04l-57.47 -0.04 -5.87 37.08 60.1 0 3.24 -37.04zm-74.56 -0.05l-57.24 -0.03 -9.26 37.12 60.63 0 5.87 -37.09zm-74.65 -0.04l-56.87 -0.03 -12.07 37.16 59.68 0 9.26 -37.13zm-74.63 -0.04l-56.6 -0.03 -14.28 37.2 58.79 0 12.09 -37.17zm-74.65 -0.04l-65.44 -0.04 -15.81 37.25 66.98 0 14.28 -37.21zm371.12 54.13l-60.38 0 -3.85 44.02 62.69 0 1.54 -44.02zm-77.36 0l-61.3 0 -6.98 44.02 64.43 0 3.85 -44.02zm-78.38 0l-62.17 0 -10.97 44.02 66.16 0 6.98 -44.02zm-79.57 0l-60.97 0 -14.3 44.02 64.3 0 10.97 -44.02zm-78.73 0l-59.79 0 -16.89 44.02 62.39 0 14.3 -44.02zm-77.83 0l-67.67 0 -18.67 44.02 69.45 0 16.89 -44.02zm389.76 60.94l-63.58 0 -4.44 50.78 66.25 0 1.77 -50.78zm-80.56 0l-65.63 0 -8.05 50.78 69.23 0 4.45 -50.78zm-82.71 0l-67.71 0 -12.66 50.78 72.32 0 8.05 -50.78zm-85.11 0l-65.57 0 -16.5 50.78 69.42 0 12.66 -50.78zm-83.33 0l-63.39 0 -19.49 50.78 66.38 0 16.5 -50.78zm-81.43 0l-70.14 0 -21.56 50.78 72.2 0 19.5 -50.78z"/>
    <path class="fil3" d="M2674.32 2653.02l0 -381.03c0,-26.81 10.93,-51.15 28.56,-68.78 17.62,-17.62 41.97,-28.56 68.78,-28.56l687.89 0c19.82,0 37.82,-8.08 50.85,-21.09l-0.03 -0.02c13.04,-13.04 21.12,-31.02 21.12,-50.82l0 -359.03c0,-19.8 -8.09,-37.79 -21.12,-50.82 -13.04,-13.04 -31.02,-21.11 -50.82,-21.11l-253.99 0 0 -25.39 253.99 0c26.81,0 51.15,10.93 68.78,28.55 17.63,17.63 28.56,41.97 28.56,68.78l0 359.03c0,26.81 -10.94,51.14 -28.56,68.77l-0.05 0c-17.62,17.63 -41.95,28.56 -68.73,28.56l-687.89 0c-19.8,0 -37.79,8.09 -50.82,21.12 -13.04,13.04 -21.12,31.02 -21.12,50.82l0 381.03 -25.39 0z"/>
    <g>
     <path class="fil4" d="M697.86 3384.35c-14.49,0 -25.77,-3.59 -33.86,-10.76 -8.08,-7.18 -12.12,-17.24 -12.12,-30.2l0 -45.98c0,-3.2 -0.73,-5.61 -2.2,-7.21 -1.46,-1.6 -3.51,-2.96 -6.16,-4.08l0 -10.87c0,-5.99 1.49,-10.49 4.49,-13.49 3,-2.99 7.35,-4.49 13.07,-4.49l16.3 0 0 18.18 -10.88 0c-2.64,0 -3.97,1.46 -3.97,4.39l0 1.88c3.76,1.53 6.66,3.49 8.68,5.85 2.02,2.37 3.03,5.79 3.03,10.25l0 45.56c0,7.52 2.09,13.38 6.27,17.55 4.18,4.18 9.97,6.27 17.34,6.27 7.39,0 13.18,-2.09 17.35,-6.27 4.18,-4.18 6.27,-10.04 6.27,-17.55l0 -45.98c0,-3.2 -0.73,-5.61 -2.2,-7.21 -1.46,-1.6 -3.51,-2.96 -6.16,-4.08l0 -10.87c0,-5.99 1.5,-10.49 4.49,-13.49 3,-2.99 7.35,-4.49 13.07,-4.49l16.09 0 0 18.18 -10.67 0c-2.78,0 -4.18,1.46 -4.18,4.39l0 1.88c3.9,1.53 6.83,3.49 8.78,5.85 1.96,2.37 2.93,5.79 2.93,10.25l0 45.56c0,12.96 -4.01,23.02 -12.02,30.2 -8.01,7.17 -19.26,10.76 -33.76,10.76zm-34.69 -56.64l0 -15.87 69.18 0 0 15.87 -69.18 0zm120.17 -30.51c0,-2.93 -0.48,-5.29 -1.46,-7.11 -0.98,-1.81 -2.51,-3.41 -4.6,-4.81l0 -8.78c0,-6.41 1.71,-11.22 5.12,-14.42 3.42,-3.21 8.47,-4.81 15.15,-4.81l21.73 0 20.9 10.04 4.6 0c2.51,0 4.39,-0.6 5.64,-1.78 1.26,-1.19 1.89,-3.1 1.89,-5.75l0 -10.04 20.06 0 0 11.92c0,4.6 -0.67,8.54 -1.99,11.81 -1.32,3.28 -3.66,5.79 -7,7.53 -3.35,1.74 -7.88,2.61 -13.59,2.61l-14.85 0 -16.71 -8.15 -15.88 0c-1.39,0 -2.58,0.35 -3.56,1.04 -0.97,0.7 -1.46,1.96 -1.46,3.77l0 1.46c2.51,1.53 4.5,3.45 5.96,5.75 1.46,2.3 2.2,5.61 2.2,9.93l0 61.87 22.36 -21.74 22.15 21.74 0 -58.11 22.36 0 0 81.09 -21.11 0 -23.4 -23.82 -23.2 23.82 -21.32 0 0 -85.06zm18.18 140.44c-5.99,0 -10.28,-0.76 -12.85,-2.29 -2.58,-1.54 -3.87,-3.91 -3.87,-7.11l0 -15.46c0,-6.97 2.44,-12.2 7.31,-15.67 4.88,-3.49 12.55,-5.23 22.99,-5.23 10.73,0 18.63,1.5 23.72,4.49 5.09,3 7.63,7.63 7.63,13.91l0 4.81c0,2.78 0.94,4.91 2.82,6.37 1.89,1.47 4.36,2.2 7.43,2.2 3.76,0 6.65,-0.94 8.67,-2.83 2.02,-1.88 3.03,-4.42 3.03,-7.63l0 -19.22 19.86 0 0 19.22c0,3.21 1.11,5.75 3.34,7.63 2.23,1.89 5.16,2.83 8.78,2.83 3.21,0 5.96,-0.94 8.26,-2.83 2.3,-1.88 3.45,-4.42 3.45,-7.63l0 -115.78c0,-3.2 -0.73,-5.61 -2.2,-7.21 -1.46,-1.6 -3.51,-2.96 -6.16,-4.08l0 -10.87c0,-5.99 1.49,-10.49 4.49,-13.49 3,-2.99 7.35,-4.49 13.07,-4.49l16.3 0 0 18.18 -10.88 0c-2.64,0 -3.97,1.46 -3.97,4.39l0 1.88c3.76,1.53 6.66,3.49 8.68,5.85 2.02,2.37 3.03,5.79 3.03,10.25l0 115.99c0,7.81 -2.79,13.73 -8.36,17.76 -5.58,4.04 -13.17,6.06 -22.78,6.06 -7.11,0 -13,-1.28 -17.66,-3.86 -4.67,-2.58 -7.98,-6.31 -9.93,-11.19l5.23 0c-1.81,4.88 -5.05,8.61 -9.72,11.19 -4.67,2.58 -10.49,3.86 -17.45,3.86 -8.5,0 -15.01,-1.6 -19.54,-4.8 -4.53,-3.21 -6.79,-7.95 -6.79,-14.22l0 -5.85c0,-2.23 -1.01,-3.98 -3.04,-5.23 -2.02,-1.25 -4.98,-1.88 -8.88,-1.88 -4.04,0 -7.07,0.63 -9.1,1.88 -2.02,1.25 -3.03,3 -3.03,5.23l0 2.92 -1.46 -2.3 2.51 0c3.9,0 6.86,1.01 8.89,3.04 2.02,2.02 3.03,4.98 3.03,8.88 0,4.04 -1.22,7.11 -3.66,9.2 -2.44,2.09 -6.17,3.13 -11.19,3.13zm1.47 -7.1c1.67,0 2.96,-0.46 3.86,-1.36 0.91,-0.91 1.36,-2.2 1.36,-3.87 0,-1.67 -0.45,-2.93 -1.36,-3.76 -0.9,-0.84 -2.19,-1.26 -3.86,-1.26l0 10.25zm217.15 -46.19c-14.5,0 -25.78,-3.59 -33.86,-10.76 -8.09,-7.18 -12.13,-17.24 -12.13,-30.2l0 -45.98c0,-3.2 -0.73,-5.61 -2.19,-7.21 -1.47,-1.6 -3.52,-2.96 -6.17,-4.08l0 -10.87c0,-5.99 1.5,-10.49 4.49,-13.49 3,-2.99 7.36,-4.49 13.07,-4.49l16.3 0 0 18.18 -10.87 0c-2.65,0 -3.98,1.46 -3.98,4.39l0 1.88c3.77,1.53 6.66,3.49 8.68,5.85 2.02,2.37 3.03,5.79 3.03,10.25l0 45.56c0,7.52 2.09,13.38 6.27,17.55 4.19,4.18 9.97,6.27 17.35,6.27 7.38,0 13.17,-2.09 17.34,-6.27 4.18,-4.18 6.27,-10.04 6.27,-17.55l0 -45.98c0,-3.2 -0.73,-5.61 -2.19,-7.21 -1.47,-1.6 -3.52,-2.96 -6.17,-4.08l0 -10.87c0,-5.99 1.5,-10.49 4.49,-13.49 3,-2.99 7.36,-4.49 13.07,-4.49l16.09 0 0 18.18 -10.66 0c-2.79,0 -4.18,1.46 -4.18,4.39l0 1.88c3.9,1.53 6.83,3.49 8.78,5.85 1.95,2.37 2.92,5.79 2.92,10.25l0 45.56c0,12.96 -4,23.02 -12.02,30.2 -8.01,7.17 -19.26,10.76 -33.75,10.76zm-34.7 -56.64l0 -15.87 69.18 0 0 15.87 -69.18 0zm185.18 -34.06c0,-6.69 -1.88,-11.92 -5.65,-15.67 -3.76,-3.77 -8.99,-5.65 -15.67,-5.65 -6.69,0 -11.92,1.88 -15.67,5.65 -3.76,3.76 -5.64,8.99 -5.64,15.67l0 59.77 -5.65 -6.27 3.14 0c5.85,0 10.45,1.39 13.8,4.18 3.34,2.79 5.01,7.32 5.01,13.59 0,6.27 -1.67,10.94 -5.01,14.01 -3.35,3.06 -8.58,4.6 -15.67,4.6 -6,0 -10.49,-0.98 -13.49,-2.93 -3,-1.95 -4.49,-4.95 -4.49,-8.99l0 -77.95c0,-12.13 3.86,-21.56 11.6,-28.32 7.74,-6.76 18.42,-10.14 32.08,-10.14 13.8,0 24.49,3.38 32.08,10.14 7.6,6.76 11.4,16.19 11.4,28.32l0 66.25 19.85 -21.1 19.85 21.1 0 -66.25c0,-12.13 3.8,-21.56 11.4,-28.32 7.59,-6.76 18.28,-10.14 32.08,-10.14 13.66,0 24.34,3.38 32.08,10.14 7.73,6.76 11.6,16.19 11.6,28.32l0 88.61 -22.36 0 0 -88.61c0,-6.69 -1.88,-11.92 -5.64,-15.67 -3.76,-3.77 -8.99,-5.65 -15.67,-5.65 -6.69,0 -11.88,1.88 -15.57,5.65 -3.69,3.76 -5.54,8.99 -5.54,15.67l0 88.61 -21.31 0 -20.9 -22.36 -20.9 22.36 -21.1 0 0 -88.61zm-44.94 79.41c4.88,0 7.31,-2.64 7.31,-7.94 0,-5.3 -2.43,-7.95 -7.31,-7.95l0 15.88zm70.02 65.21c-6.14,0 -11.08,-0.55 -14.85,-1.67 -3.76,-1.11 -6.44,-2.79 -8.05,-5.02 -1.6,-2.23 -2.4,-5.01 -2.4,-8.36l0 -7.74 59.98 -4.8c2.09,-0.28 3.49,-0.7 4.18,-1.26 0.7,-0.56 1.05,-1.53 1.05,-2.93l-9.62 -3.13 -19.01 5.02 -18.81 -5.02 -16.93 4.18 0 -11.29 15.89 -4.39 19.85 6.9 19.85 -6.9 28.21 9.41 0 6.27c0,4.18 -1.77,7.07 -5.33,8.68 -3.55,1.6 -7.77,2.61 -12.65,3.03l-47.86 3.97 1.05 -0.84c0,2.37 0.73,3.98 2.2,4.81 1.46,0.84 3.79,1.26 7,1.26 3.48,0 7.04,-0.32 10.66,-0.94 3.63,-0.63 7.53,-1.22 11.71,-1.78 4.18,-0.56 8.71,-0.73 13.59,-0.52 4.88,0.21 10.38,1.08 16.51,2.61l-3.35 10.45c-5.57,-1.53 -10.56,-2.4 -14.95,-2.61 -4.39,-0.21 -8.57,-0.07 -12.54,0.42 -3.97,0.49 -7.98,0.97 -12.02,1.46 -4.05,0.49 -8.5,0.73 -13.38,0.73zm275.25 -53.92c-14.08,0 -24.97,-3.55 -32.71,-10.66 -7.74,-7.11 -11.6,-17.06 -11.6,-29.89l0 -48.27c0,-7.25 -1.99,-12.93 -5.96,-17.03 -3.97,-4.11 -9.51,-6.17 -16.61,-6.17 -7.11,0 -12.62,2.06 -16.51,6.17 -3.9,4.11 -5.85,9.79 -5.85,17.03l0 57.89 -5.65 -6.27 3.14 0c5.85,0 10.45,1.39 13.8,4.18 3.34,2.79 5.01,7.32 5.01,13.59 0,6.27 -1.67,10.94 -5.01,14.01 -3.35,3.06 -8.58,4.6 -15.67,4.6 -6,0 -10.49,-0.98 -13.49,-2.93 -3,-1.95 -4.49,-4.95 -4.49,-8.99l0 -76.07c0,-12.82 3.94,-22.75 11.81,-29.78 7.87,-7.04 18.84,-10.56 32.92,-10.56 14.35,0 25.42,3.52 33.23,10.56 7.8,7.03 11.71,16.96 11.71,29.78l0 48.27c0,7.39 1.91,13.14 5.75,17.24 3.83,4.11 9.23,6.17 16.19,6.17 6.97,0 12.4,-2.06 16.3,-6.17 3.9,-4.11 5.85,-9.86 5.85,-17.24l0 -46.39c0,-3.2 -0.73,-5.61 -2.19,-7.21 -1.47,-1.6 -3.52,-2.96 -6.17,-4.08l0 -10.87c0,-5.99 1.46,-10.49 4.39,-13.49 2.93,-2.99 7.32,-4.49 13.17,-4.49l16.09 0 0 18.18 -10.66 0c-2.79,0 -4.19,1.46 -4.19,4.39l0 1.88c3.91,1.53 6.83,3.49 8.78,5.85 1.96,2.37 2.93,5.79 2.93,10.25l0 45.97c0,12.83 -3.87,22.78 -11.6,29.89 -7.74,7.11 -18.63,10.66 -32.71,10.66zm-91.54 -11.29c4.88,0 7.31,-2.64 7.31,-7.94 0,-5.3 -2.43,-7.95 -7.31,-7.95l0 15.88zm221.54 11.29c-14.5,0 -25.78,-3.59 -33.86,-10.76 -8.08,-7.18 -12.13,-17.24 -12.13,-30.2l0 -45.98c0,-3.2 -0.73,-5.61 -2.19,-7.21 -1.46,-1.6 -3.52,-2.96 -6.17,-4.08l0 -10.87c0,-5.99 1.5,-10.49 4.5,-13.49 2.99,-2.99 7.35,-4.49 13.06,-4.49l16.3 0 0 18.18 -10.87 0c-2.65,0 -3.97,1.46 -3.97,4.39l0 1.88c3.76,1.53 6.65,3.49 8.67,5.85 2.02,2.37 3.04,5.79 3.04,10.25l0 45.56c0,7.52 2.09,13.38 6.27,17.55 4.18,4.18 9.96,6.27 17.34,6.27 7.39,0 13.17,-2.09 17.34,-6.27 4.18,-4.18 6.27,-10.04 6.27,-17.55l0 -45.98c0,-3.2 -0.73,-5.61 -2.19,-7.21 -1.46,-1.6 -3.52,-2.96 -6.17,-4.08l0 -10.87c0,-5.99 1.5,-10.49 4.5,-13.49 2.99,-2.99 7.35,-4.49 13.06,-4.49l16.09 0 0 18.18 -10.66 0c-2.79,0 -4.18,1.46 -4.18,4.39l0 1.88c3.9,1.53 6.83,3.49 8.78,5.85 1.95,2.37 2.93,5.79 2.93,10.25l0 45.56c0,12.96 -4.01,23.02 -12.02,30.2 -8.02,7.17 -19.26,10.76 -33.76,10.76zm103.67 -0.83c-6,0 -10.42,-0.98 -13.28,-2.93 -2.86,-1.95 -4.28,-4.95 -4.28,-8.99l0 -74.2c0,-3.2 -0.67,-5.64 -1.99,-7.32 -1.32,-1.67 -3.1,-3.13 -5.33,-4.39l0 -10.45c0,-5.99 1.46,-10.49 4.39,-13.49 2.93,-2.99 7.32,-4.49 13.17,-4.49l17.97 0 0 18.18 -12.54 0c-2.79,0 -4.19,1.46 -4.19,4.39l0 1.88c3.49,1.53 6.14,3.49 7.95,5.85 1.81,2.37 2.72,5.79 2.72,10.25l0 54.34 -6.06 -6.69 2.92 0c5.86,0 10.45,1.5 13.8,4.49 3.34,3 5.02,7.77 5.02,14.32 0,12.83 -6.76,19.23 -20.27,19.23zm1.88 -10.46c4.74,0 7.11,-2.85 7.11,-8.57 0,-5.71 -2.37,-8.57 -7.11,-8.57l0 17.13zm88.61 65.21c-12.96,0 -23.23,-3.13 -30.82,-9.4 -7.6,-6.28 -11.4,-14.85 -11.4,-25.71l0 -105.75c0,-3.2 -0.73,-5.61 -2.19,-7.21 -1.47,-1.6 -3.52,-2.96 -6.17,-4.08l0 -10.87c0,-5.99 1.5,-10.49 4.49,-13.49 3,-2.99 7.36,-4.49 13.07,-4.49l16.3 0 0 18.18 -10.87 0c-2.65,0 -3.97,1.46 -3.97,4.39l0 1.88c3.76,1.53 6.65,3.49 8.67,5.85 2.02,2.37 3.03,5.79 3.03,10.25l0 105.33c0,5.44 1.78,9.83 5.34,13.17 3.55,3.35 8.39,5.02 14.52,5.02 6,0 10.81,-1.67 14.43,-5.02 3.62,-3.34 5.44,-7.73 5.44,-13.17l0 -9.2 22.15 0 0 9.2c0,10.87 -3.77,19.43 -11.29,25.71 -7.53,6.27 -17.76,9.4 -30.73,9.4zm19.86 -56.01l0 -51.83 -9.62 0 0 -14.84 31.98 0 0 44.1 23.82 -21.73 23.82 21.73 0 -48.69c0,-3.9 -0.59,-7.14 -1.77,-9.72 -1.19,-2.58 -4.08,-4.84 -8.68,-6.8l15.46 -8.15c6.97,2.65 11.6,5.92 13.9,9.83 2.3,3.9 3.45,8.85 3.45,14.84l0 71.27 -21.1 0 -25.08 -23.61 -24.87 23.61 -21.31 0zm33.02 -77.32c-10.18,0 -18.36,-1.89 -24.56,-5.65 -6.2,-3.76 -9.3,-8.99 -9.3,-15.67 0,-3.48 0.56,-6.55 1.67,-9.2 1.12,-2.64 1.67,-5.08 1.67,-7.31 0,-1.4 -0.31,-2.34 -0.94,-2.83 -0.62,-0.49 -1.56,-0.73 -2.82,-0.73l-3.14 0 0 -13.8 12.34 0c5.44,0 9.37,1.05 11.81,3.14 2.44,2.09 3.66,5.16 3.66,9.2 0,3.2 -0.52,6.2 -1.57,8.99 -1.04,2.78 -1.57,5.57 -1.57,8.36 0,3.35 1.36,6.06 4.08,8.15 2.72,2.1 7.01,3.14 12.86,3.14 5.02,0 9.3,-0.84 12.86,-2.51 3.55,-1.67 7,-4.04 10.35,-7.11l2.09 8.99c-4.32,-0.28 -8.02,-1.95 -11.08,-5.02 -3.07,-3.06 -4.6,-6.89 -4.6,-11.49 0,-5.44 1.84,-9.72 5.54,-12.86 3.69,-3.14 8.6,-4.7 14.74,-4.7 6.27,0 11.22,1.56 14.84,4.7 3.62,3.14 5.44,7.42 5.44,12.86 0,3.48 -0.87,6.51 -2.62,9.09 -1.74,2.58 -3.97,4.67 -6.69,6.27 -2.71,1.61 -5.54,2.69 -8.47,3.24 -1.53,1.68 -3.97,3.49 -7.31,5.44 -3.35,1.95 -7.46,3.66 -12.34,5.12 -4.87,1.46 -10.52,2.2 -16.92,2.2zm34.07 -24.87c1.81,0 3.27,-0.6 4.39,-1.78 1.11,-1.18 1.67,-2.61 1.67,-4.28 0,-1.82 -0.56,-3.31 -1.67,-4.5 -1.12,-1.19 -2.58,-1.78 -4.39,-1.78 -1.68,0 -3.07,0.59 -4.18,1.78 -1.12,1.19 -1.68,2.68 -1.68,4.5 0,1.67 0.56,3.1 1.68,4.28 1.11,1.18 2.5,1.78 4.18,1.78zm40.96 158.21c-12.96,0 -23.23,-3.06 -30.82,-9.2 -7.6,-6.13 -11.4,-14.49 -11.4,-25.08l0 -10.03 22.36 0 0 10.03c0,5.3 1.78,9.52 5.33,12.65 3.56,3.14 8.4,4.71 14.53,4.71 6.14,0 10.98,-1.57 14.53,-4.71 3.56,-3.13 5.33,-7.35 5.33,-12.65l0 -146.08c0,-6 -1.56,-10.56 -4.7,-13.7 -3.14,-3.13 -7.7,-4.7 -13.69,-4.7l-38.46 0 0 -24.24c0,-2.51 -1.26,-3.77 -3.76,-3.77l-5.86 0 0 -14.42 16.3 0c4.74,0 8.15,1.04 10.24,3.13 2.09,2.09 3.14,5.44 3.14,10.04l0 13.17 22.57 0c12.13,0 21.24,2.75 27.38,8.26 6.13,5.5 9.2,13.83 9.2,24.97l0 147.34c0,10.6 -3.77,18.95 -11.29,25.08 -7.53,6.14 -17.83,9.2 -30.94,9.2zm134.81 -53.92c-7.25,0 -13.41,-1.22 -18.49,-3.66 -5.09,-2.43 -9.3,-5.74 -12.65,-9.93 -3.34,-4.18 -5.99,-8.85 -7.94,-14l5.22 -11.09c0.98,3.07 2.69,6.35 5.13,9.83 2.43,3.49 5.57,6.38 9.4,8.68 3.84,2.3 8.33,3.45 13.49,3.45 5.85,0 10.35,-1.36 13.48,-4.08 3.14,-2.72 4.71,-6.58 4.71,-11.6l0 -12.55c-9.2,-1.25 -17.94,-2.92 -26.23,-5.01 -8.29,-2.09 -15.67,-4.88 -22.15,-8.37 -6.48,-3.48 -11.57,-7.94 -15.25,-13.38 -3.7,-5.43 -5.54,-12.19 -5.54,-20.27 0,-11.98 4.35,-21.17 13.06,-27.58 8.71,-6.42 20.24,-9.62 34.59,-9.62 14.08,0 25.08,2.82 33.03,8.47 7.94,5.64 11.91,13.34 11.91,23.09 0,7.52 -2.4,13.38 -7.21,17.55 -4.81,4.18 -11.11,6.27 -18.91,6.27 -2.79,0 -5.26,-0.24 -7.42,-0.73 -2.16,-0.49 -3.87,-0.94 -5.12,-1.36l0 -14.01c0.97,0.42 2.19,0.81 3.65,1.15 1.47,0.35 2.9,0.53 4.29,0.53 2.65,0 4.74,-0.8 6.27,-2.41 1.54,-1.6 2.3,-3.87 2.3,-6.79 0,-4.6 -2.02,-8.23 -6.06,-10.87 -4.04,-2.65 -9.62,-3.98 -16.72,-3.98 -7.66,0 -13.79,1.85 -18.38,5.54 -4.6,3.7 -6.9,8.96 -6.9,15.78 0,7.66 2.89,13.52 8.67,17.55 5.79,4.04 13.84,7.14 24.14,9.3 10.31,2.16 22.36,4.15 36.16,5.96l0 27.8c0,9.62 -3.07,17.06 -9.2,22.36 -6.13,5.3 -14.57,7.94 -25.29,7.94zm-54.34 -2.09l0 -42.01 21.32 0 0 21.31 -1.46 20.69 -19.86 0zm126.03 -53.08c0,-12.96 4.08,-23.02 12.23,-30.2 8.16,-7.18 19.47,-10.84 33.97,-10.98 14.63,0.14 25.98,3.8 34.07,10.98 8.08,7.18 12.12,17.24 12.12,30.2l0 53.08 -22.36 0 0 -53.08c0.14,-7.67 -1.91,-13.56 -6.17,-17.66 -4.25,-4.11 -10.14,-6.16 -17.65,-6.16 -7.39,0 -13.24,2.05 -17.55,6.16 -4.33,4.11 -6.41,10 -6.28,17.66l-0.2 53.08 -22.16 0 0 -53.08zm-0.83 -53.71l0 -18.18 94.05 0 0 18.18 -94.05 0zm72.32 160.72l0 -42.22 20.89 0 0 42.22 -20.89 0zm-25.29 -191.86c-7.25,0 -13,-1.99 -17.24,-5.96 -4.25,-3.97 -6.38,-9.17 -6.38,-15.57 0,-6.55 2.13,-11.77 6.38,-15.67 4.25,-3.9 10,-5.85 17.24,-5.85 7.39,0 13.2,1.95 17.45,5.85 4.25,3.91 6.37,9.13 6.37,15.67 0,6.41 -2.12,11.61 -6.37,15.57 -4.26,3.97 -10.07,5.96 -17.45,5.96zm0 -12.34c2.65,0 4.7,-0.83 6.17,-2.51 1.46,-1.67 2.19,-3.9 2.19,-6.69 0,-2.79 -0.73,-5.02 -2.19,-6.69 -1.47,-1.67 -3.52,-2.51 -6.17,-2.51 -2.51,0 -4.53,0.84 -6.06,2.51 -1.54,1.67 -2.3,3.9 -2.3,6.69 0,2.79 0.76,5.02 2.3,6.69 1.53,1.68 3.55,2.51 6.06,2.51zm155.91 150.27l0 -96.77 -8.78 -8.78 -14.42 12.55 -1.26 0 -14.42 -12.55 -8.78 8.78 0 67.93 -5.65 -6.27 3.14 0c5.85,0 10.45,1.39 13.8,4.18 3.34,2.79 5.01,7.32 5.01,13.59 0,6.27 -1.67,10.94 -5.01,14.01 -3.35,3.06 -8.58,4.6 -15.67,4.6 -6,0 -10.49,-0.98 -13.49,-2.93 -3,-1.95 -4.49,-4.95 -4.49,-8.99l0 -91.33 26.12 -25.08 1.46 0 18.6 15.67 18.6 -15.67 1.46 0 26.12 25.08 0 101.99 -22.36 0zm-49.94 -9.2c4.88,0 7.31,-2.64 7.31,-7.94 0,-5.3 -2.43,-7.95 -7.31,-7.95l0 15.88zm92.17 65.21c-12.97,0 -23.23,-3.06 -30.83,-9.2 -7.6,-6.13 -11.39,-14.49 -11.39,-25.08l0 -10.03 22.36 0 0 10.03c0,5.3 1.77,9.52 5.33,12.65 3.55,3.14 8.39,4.71 14.53,4.71 6.13,0 10.97,-1.57 14.53,-4.71 3.55,-3.13 5.33,-7.35 5.33,-12.65l0 -106.58c0,-3.2 -0.73,-5.61 -2.2,-7.21 -1.46,-1.6 -3.52,-2.96 -6.16,-4.08l0 -10.87c0,-5.99 1.49,-10.49 4.49,-13.49 3,-2.99 7.35,-4.49 13.07,-4.49l16.29 0 0 18.18 -10.87 0c-2.64,0 -3.97,1.46 -3.97,4.39l0 1.88c3.76,1.53 6.66,3.49 8.68,5.85 2.02,2.37 3.03,5.79 3.03,10.25l0 106.16c0,10.6 -3.76,18.95 -11.29,25.08 -7.53,6.14 -17.83,9.2 -30.93,9.2zm11.91 41.81c-8.64,0 -15.21,-1.68 -19.74,-5.02 -4.53,-3.35 -6.8,-8.02 -6.8,-14.01l0 -14.42 17.34 0 0 13.38c0,2.51 0.88,4.46 2.62,5.85 1.74,1.39 3.8,2.09 6.17,2.09 2.78,0 4.98,-0.7 6.58,-2.09 1.6,-1.39 2.41,-3.34 2.41,-5.85l0 -13.38 19.64 0 0 14.42c0,5.99 -2.41,10.66 -7.21,14.01 -4.81,3.34 -11.82,5.02 -21.01,5.02zm124.36 -140.87c-7.94,-0.28 -15.6,-1.32 -22.99,-3.13 -7.38,-1.81 -13.97,-4.46 -19.74,-7.95 -5.79,-3.48 -10.35,-7.98 -13.7,-13.48 -3.34,-5.51 -5.02,-12.3 -5.02,-20.38 0,-12.4 4.22,-22.01 12.65,-28.84 8.43,-6.83 19.75,-10.24 33.96,-10.24 9.48,0 17.56,1.46 24.25,4.39 6.69,2.93 11.81,6.9 15.35,11.92 3.56,5.01 5.34,10.66 5.34,16.92 0,2.51 -0.28,4.81 -0.84,6.9 -0.56,2.09 -1.26,3.83 -2.09,5.23l-22.36 0c0.7,-1.68 1.36,-3.56 1.98,-5.65 0.63,-2.09 0.95,-4.04 0.95,-5.85 0,-4.88 -1.99,-8.89 -5.96,-12.02 -3.98,-3.14 -9.31,-4.71 -15.99,-4.71 -7.39,0 -13.27,1.92 -17.65,5.75 -4.39,3.84 -6.59,9.58 -6.59,17.24 0,9.76 3.66,16.79 10.98,21.11 7.31,4.32 17.51,7.03 30.61,8.15l-3.13 14.63zm-16.51 45.14c-11.15,0 -19.88,-2.71 -26.22,-8.15 -6.35,-5.44 -9.52,-13.1 -9.52,-22.99l0 -9.41 21.73 0 0 9.41c0,4.6 1.23,8.19 3.66,10.77 2.44,2.58 5.82,3.87 10.14,3.87 4.46,0 7.84,-1.29 10.14,-3.87 2.3,-2.58 3.45,-6.17 3.45,-10.77l0 -29.68c0,-4.04 1.43,-7.14 4.29,-9.3 2.86,-2.16 7,-3.24 12.44,-3.24 6.55,0 11.36,1.53 14.42,4.6 3.07,3.07 4.6,7.18 4.6,12.33 0,5.44 -1.6,9.48 -4.81,12.13 -3.2,2.65 -7.17,3.97 -11.91,3.97l-2.3 0 5.02 -6.06 0 15.46c0,9.76 -3.03,17.34 -9.1,22.78 -6.06,5.44 -14.74,8.15 -26.02,8.15zm31.98 -50.36c4.04,0 6.06,-2.09 6.06,-6.28 0,-4.04 -2.02,-6.06 -6.06,-6.06l0 12.34zm-20.48 -91.13c-9.75,0 -17.27,-1.88 -22.57,-5.64 -5.29,-3.76 -7.94,-9.27 -7.94,-16.51 0,-6.55 2.16,-11.6 6.48,-15.15 4.32,-3.55 9.96,-5.33 16.92,-5.33 2.65,0 4.92,0.21 6.8,0.63 1.88,0.42 3.31,0.77 4.28,1.05l0 11.91c-0.97,-0.28 -2.05,-0.59 -3.24,-0.94 -1.18,-0.35 -2.33,-0.52 -3.45,-0.52 -2.5,0 -4.49,0.7 -5.95,2.09 -1.47,1.39 -2.2,3.28 -2.2,5.64 0,3.07 1.08,5.41 3.24,7.01 2.16,1.6 5.26,2.4 9.3,2.4 6.97,0 12.51,-2.72 16.62,-8.15 4.11,-5.44 6.79,-13.1 8.04,-22.99l20.27 0c-2.64,14.78 -7.7,25.88 -15.14,33.34 -7.46,7.45 -17.94,11.18 -31.46,11.18zm83.6 140.66c-6.83,0 -11.92,-1.54 -15.25,-4.6 -3.35,-3.07 -5.02,-7.67 -5.02,-13.8 0,-6.13 1.6,-10.66 4.81,-13.59 3.2,-2.93 7.66,-4.39 13.38,-4.39l2.72 0 -5.23 6.27 0 -54.75c0,-3.35 -1.05,-5.93 -3.14,-7.74 -2.09,-1.81 -5.01,-3.35 -8.78,-4.6l0 -11.08c0,-5.99 1.47,-10.49 4.39,-13.49 2.93,-2.99 7.32,-4.49 13.17,-4.49l18.18 0 0 18.18 -12.75 0c-2.79,0 -4.18,1.46 -4.18,4.39l0 1.88c5.16,1.39 8.99,3.49 11.5,6.27 2.51,2.79 3.76,6.48 3.76,11.08l0 72.53c0,7.94 -5.85,11.92 -17.55,11.92zm-1.46 -26.13c-4.74,0 -7.11,2.65 -7.11,7.95 0,5.16 2.37,7.73 7.11,7.73l0 -15.67zm77.32 26.13c-5.99,0 -10.42,-0.98 -13.27,-2.93 -2.86,-1.95 -4.29,-4.95 -4.29,-8.99l0 -74.2c0,-3.2 -0.66,-5.64 -1.99,-7.32 -1.32,-1.67 -3.1,-3.13 -5.33,-4.39l0 -10.45c0,-5.99 1.47,-10.49 4.39,-13.49 2.93,-2.99 7.32,-4.49 13.17,-4.49l17.97 0 0 18.18 -12.54 0c-2.79,0 -4.18,1.46 -4.18,4.39l0 1.88c3.48,1.53 6.13,3.49 7.94,5.85 1.81,2.37 2.72,5.79 2.72,10.25l0 54.34 -6.06 -6.69 2.92 0c5.86,0 10.46,1.5 13.8,4.49 3.35,3 5.02,7.77 5.02,14.32 0,12.83 -6.76,19.23 -20.27,19.23zm1.88 -10.46c4.74,0 7.11,-2.85 7.11,-8.57 0,-5.71 -2.37,-8.57 -7.11,-8.57l0 17.13zm88.41 11.29c-14.22,0 -25.15,-3.13 -32.81,-9.4 -7.67,-6.28 -11.5,-14.78 -11.5,-25.5l0 -23.2c10.31,-1.25 19.67,-2.58 28.11,-3.97 8.43,-1.39 15.67,-3.21 21.73,-5.44 6.06,-2.23 10.77,-5.22 14.11,-8.99 3.35,-3.76 5.02,-8.57 5.02,-14.42 0,-6.83 -2.23,-12.09 -6.69,-15.78 -4.46,-3.69 -10.66,-5.54 -18.6,-5.54 -6.69,0 -12.16,1.4 -16.4,4.19 -4.25,2.78 -6.38,6.69 -6.38,11.7 0,2.93 0.77,5.26 2.3,7.01 1.54,1.74 3.63,2.61 6.27,2.61 1.4,0 2.83,-0.18 4.29,-0.52 1.46,-0.35 2.68,-0.74 3.66,-1.15l0 14.01c-1.25,0.41 -2.93,0.87 -5.02,1.35 -2.09,0.49 -4.6,0.73 -7.52,0.73 -7.81,0 -14.12,-2.15 -18.92,-6.48 -4.8,-4.32 -7.21,-10.38 -7.21,-18.18 0,-10.03 4.08,-17.89 12.23,-23.61 8.16,-5.71 19.12,-8.57 32.92,-8.57 14.22,0 25.67,3.07 34.38,9.2 8.71,6.13 13.07,15.25 13.07,27.38 0,8.5 -2.02,15.56 -6.06,21.21 -4.05,5.64 -9.48,10.21 -16.3,13.69 -6.83,3.49 -14.32,6.2 -22.47,8.15 -8.15,1.96 -16.26,3.42 -24.34,4.39l0 10.04c0,5.71 2.02,10.17 6.06,13.38 4.04,3.21 9.48,4.81 16.3,4.81 6.69,0 12.05,-1.46 16.09,-4.39 4.04,-2.93 6.06,-6.9 6.06,-11.92 0,-3.62 -1.19,-7.18 -3.55,-10.66l20.26 -6.48c1.54,2.65 2.76,5.5 3.66,8.57 0.91,3.07 1.36,6.41 1.36,10.04 0,9.61 -3.94,17.3 -11.81,23.09 -7.87,5.78 -18.63,8.67 -32.29,8.67z"/>
     <path class="fil4" d="M2882.74 3384.35c-14.5,0 -25.78,-3.59 -33.86,-10.76 -8.09,-7.18 -12.13,-17.24 -12.13,-30.2l0 -45.98c0,-3.2 -0.73,-5.61 -2.19,-7.21 -1.46,-1.6 -3.52,-2.96 -6.17,-4.08l0 -10.87c0,-5.99 1.5,-10.49 4.5,-13.49 2.99,-2.99 7.35,-4.49 13.06,-4.49l16.3 0 0 18.18 -10.87 0c-2.65,0 -3.97,1.46 -3.97,4.39l0 1.88c3.76,1.53 6.65,3.49 8.67,5.85 2.02,2.37 3.03,5.79 3.03,10.25l0 45.56c0,7.52 2.09,13.38 6.28,17.55 4.18,4.18 9.96,6.27 17.34,6.27 7.38,0 13.17,-2.09 17.34,-6.27 4.18,-4.18 6.27,-10.04 6.27,-17.55l0 -45.98c0,-3.2 -0.73,-5.61 -2.19,-7.21 -1.47,-1.6 -3.52,-2.96 -6.17,-4.08l0 -10.87c0,-5.99 1.5,-10.49 4.49,-13.49 3,-2.99 7.36,-4.49 13.07,-4.49l16.09 0 0 18.18 -10.66 0c-2.79,0 -4.18,1.46 -4.18,4.39l0 1.88c3.9,1.53 6.83,3.49 8.78,5.85 1.95,2.37 2.92,5.79 2.92,10.25l0 45.56c0,12.96 -4,23.02 -12.02,30.2 -8.01,7.17 -19.26,10.76 -33.75,10.76zm-34.7 -56.64l0 -15.87 69.19 0 0 15.87 -69.19 0zm166.15 56.64c-14.49,0 -25.77,-3.59 -33.86,-10.76 -8.08,-7.18 -12.12,-17.24 -12.12,-30.2l0 -45.98c0,-3.2 -0.73,-5.61 -2.2,-7.21 -1.46,-1.6 -3.52,-2.96 -6.16,-4.08l0 -10.87c0,-5.99 1.49,-10.49 4.49,-13.49 3,-2.99 7.35,-4.49 13.07,-4.49l16.29 0 0 18.18 -10.87 0c-2.65,0 -3.97,1.46 -3.97,4.39l0 1.88c3.76,1.53 6.65,3.49 8.68,5.85 2.02,2.37 3.03,5.79 3.03,10.25l0 45.56c0,7.52 2.09,13.38 6.27,17.55 4.18,4.18 9.96,6.27 17.34,6.27 7.39,0 13.17,-2.09 17.34,-6.27 4.19,-4.18 6.28,-10.04 6.28,-17.55l0 -45.98c0,-3.2 -0.74,-5.61 -2.2,-7.21 -1.46,-1.6 -3.52,-2.96 -6.17,-4.08l0 -10.87c0,-5.99 1.5,-10.49 4.5,-13.49 3,-2.99 7.35,-4.49 13.07,-4.49l16.08 0 0 18.18 -10.66 0c-2.79,0 -4.18,1.46 -4.18,4.39l0 1.88c3.9,1.53 6.83,3.49 8.78,5.85 1.95,2.37 2.93,5.79 2.93,10.25l0 45.56c0,12.96 -4.01,23.02 -12.02,30.2 -8.02,7.17 -19.26,10.76 -33.76,10.76zm14.85 53.92c-9.06,0 -15.99,-2.02 -20.8,-6.06 -4.8,-4.04 -7.21,-9.62 -7.21,-16.72l0 -21.52 18.39 0 0 21.11c0,2.92 0.84,5.26 2.51,7 1.67,1.74 3.9,2.61 6.69,2.61 2.79,0 5.05,-0.87 6.79,-2.61 1.75,-1.74 2.62,-4.08 2.62,-7l0 -21.11 19.85 0 0 21.52c0,7.11 -2.48,12.69 -7.42,16.72 -4.95,4.04 -12.09,6.06 -21.42,6.06zm211.5 -146.5c0,-10.88 -5.01,-16.3 -15.04,-16.3l-31.56 0 0 -18.18 36.16 0c21.73,0 32.61,10.94 32.61,32.81l0 92.17 -22.16 0 0 -90.49zm-62.7 91.75c-6.41,0 -11.43,-1.54 -15.04,-4.6 -3.62,-3.07 -5.44,-7.67 -5.44,-13.8 0,-6.13 1.68,-10.66 5.02,-13.59 3.35,-2.93 7.95,-4.39 13.8,-4.39l2.72 0 -5.44 6.27 0 -54.75c0,-3.21 -0.87,-5.75 -2.61,-7.64 -1.74,-1.88 -4.43,-3.45 -8.05,-4.7l0 -11.08c0,-5.99 1.5,-10.49 4.5,-13.49 2.99,-2.99 7.42,-4.49 13.27,-4.49l16.93 0 0 18.18 -11.71 0c-2.79,0 -4.18,1.46 -4.18,4.39l0 1.88c4.88,1.39 8.46,3.49 10.76,6.27 2.3,2.79 3.45,6.48 3.45,11.08l0 72.53c0,3.76 -1.36,6.69 -4.07,8.78 -2.72,2.09 -7.36,3.14 -13.91,3.14zm-67.71 -26.13c-4.88,0 -7.32,2.65 -7.32,7.95 0,5.16 2.44,7.73 7.32,7.73l0 -15.67zm1.04 26.13c-6.27,0 -11.22,-1.54 -14.84,-4.6 -3.63,-3.07 -5.44,-7.67 -5.44,-13.8 0,-6.13 1.67,-10.66 5.02,-13.59 3.34,-2.93 7.87,-4.39 13.59,-4.39l2.72 0 -5.23 6.27 0 -54.75c0,-3.35 -0.94,-5.93 -2.82,-7.74 -1.88,-1.81 -4.5,-3.35 -7.84,-4.6l0 -11.08c0,-5.99 1.46,-10.49 4.39,-13.49 2.92,-2.99 7.31,-4.49 13.17,-4.49l16.92 0 0 18.18 -11.5 0c-2.78,0 -4.18,1.46 -4.18,4.39l0 1.88c4.74,1.39 8.26,3.49 10.56,6.27 2.3,2.79 3.45,6.48 3.45,11.08l0 72.53c0,3.9 -1.36,6.86 -4.08,8.89 -2.72,2.02 -7.35,3.03 -13.9,3.03zm65.63 -26.13c-4.88,0 -7.32,2.65 -7.32,7.95 0,5.16 2.44,7.73 7.32,7.73l0 -15.67zm-61.87 -29.26l0 -15.25 70.23 0 0 15.25 -70.23 0zm230.74 56.22c-13.38,0 -23.79,-3.41 -31.25,-10.24 -7.46,-6.83 -11.19,-16.44 -11.19,-28.84l0 -77.54c0,-2.37 0.56,-4.42 1.68,-6.17 1.11,-1.74 2.93,-3.1 5.43,-4.07 2.51,-0.98 6,-1.46 10.46,-1.46 13.66,0 20.48,6.13 20.48,18.38 0,6.28 -1.71,10.84 -5.13,13.7 -3.41,2.85 -7.98,4.28 -13.69,4.28l-1.67 0 4.8 -2.92 0 55.8c0,6.97 1.96,12.37 5.86,16.19 3.9,3.83 9.48,5.75 16.71,5.75 7.11,0 12.62,-1.95 16.51,-5.86 3.9,-3.9 5.85,-9.26 5.85,-16.08l0 -47.86c0,-3.2 -0.69,-5.61 -2.09,-7.21 -1.39,-1.6 -3.41,-2.96 -6.06,-4.08l0 -10.87c0,-5.99 1.46,-10.49 4.39,-13.49 2.93,-2.99 7.32,-4.49 13.17,-4.49l16.09 0 0 18.18 -10.66 0c-2.79,0 -4.18,1.46 -4.18,4.39l0 1.88c3.76,1.53 6.65,3.49 8.67,5.85 2.02,2.37 3.03,5.79 3.03,10.25l0 47.44c0,6.83 1.96,12.19 5.86,16.08 3.9,3.91 9.27,5.86 16.09,5.86 6.97,0 12.4,-1.92 16.29,-5.75 3.91,-3.83 5.86,-9.23 5.86,-16.19l0 -47.86c0,-3.2 -0.73,-5.61 -2.2,-7.21 -1.46,-1.6 -3.52,-2.96 -6.16,-4.08l0 -10.87c0,-5.99 1.46,-10.49 4.39,-13.49 2.92,-2.99 7.31,-4.49 13.17,-4.49l16.09 0 0 18.18 -10.67 0c-2.78,0 -4.18,1.46 -4.18,4.39l0 1.88c3.91,1.53 6.83,3.49 8.78,5.85 1.95,2.37 2.93,5.79 2.93,10.25l0 47.44c0,12.4 -3.66,22.01 -10.98,28.84 -7.31,6.83 -17.65,10.24 -31.03,10.24 -8.92,0 -16.51,-1.88 -22.78,-5.64 -6.27,-3.76 -11.15,-9.34 -14.64,-16.72l3.98 0c-3.49,7.39 -8.4,12.97 -14.74,16.72 -6.35,3.76 -14.12,5.64 -23.3,5.64zm-23.2 -101.99c4.88,0 7.32,-2.72 7.32,-8.16 0,-5.29 -2.44,-7.94 -7.32,-7.94l0 16.09zm176.39 14.84c0,-3.06 -0.52,-5.47 -1.57,-7.21 -1.04,-1.74 -2.47,-3.31 -4.28,-4.71l0 -8.78c0,-6.41 1.71,-11.22 5.12,-14.42 3.42,-3.21 8.4,-4.81 14.95,-4.81l79 0 0 18.18 -74.2 0c-1.26,0 -2.37,0.35 -3.35,1.04 -0.97,0.7 -1.46,1.96 -1.46,3.77l0 1.46c2.37,1.53 4.32,3.45 5.85,5.75 1.54,2.3 2.3,5.61 2.3,9.93l0 62.28 23.83 -21.73 23.82 21.73 0 -39.5 5.65 6.27 -3.14 0c-5.72,0 -10.28,-1.39 -13.69,-4.18 -3.42,-2.79 -5.13,-7.32 -5.13,-13.59 0,-6.27 1.71,-10.94 5.13,-14.01 3.41,-3.06 8.6,-4.6 15.56,-4.6 6.13,0 10.66,0.94 13.59,2.83 2.93,1.88 4.39,4.91 4.39,9.09l0 80.25 -21.1 0 -25.08 -23.82 -24.87 23.82 -21.32 0 0 -85.06zm72.32 3.35c-4.74,0 -7.11,2.65 -7.11,7.94 0,5.3 2.37,7.95 7.11,7.95l0 -15.88zm-40.13 -58.31c-8.08,0 -14.25,-1.68 -18.49,-5.02 -4.25,-3.35 -6.38,-8.08 -6.38,-14.22 0,-6.97 2.58,-12.58 7.74,-16.82 5.15,-4.25 12.61,-6.37 22.36,-6.37 6.41,0 12.02,0.87 16.82,2.61 4.81,1.74 8.88,3.97 12.23,6.69 3.34,2.72 5.99,5.47 7.94,8.26l0.84 0 0 -20.27 17.13 0 0 45.14 -60.19 0zm3.55 -11.71l36.37 0c-1.95,-3.21 -4.67,-5.96 -8.15,-8.26 -3.49,-2.3 -7.35,-4.11 -11.6,-5.43 -4.26,-1.33 -8.33,-1.99 -12.24,-1.99 -4.46,0 -7.77,0.76 -9.93,2.3 -2.16,1.53 -3.24,3.62 -3.24,6.27 0,2.09 0.74,3.8 2.2,5.12 1.46,1.33 3.66,1.99 6.58,1.99z"/>
    </g>
   </g>
  </g>
 </g>
</svg>
